<svg width="25" height="28" viewBox="0 0 25 28" fill="none" xmlns="http://www.w3.org/2000/svg">
<path d="M5.20616 22.75C4.67144 22.75 4.21369 22.5596 3.8329 22.1788C3.45211 21.798 3.26172 21.3403 3.26172 20.8056V7.19444C3.26172 6.65972 3.45211 6.20197 3.8329 5.82118C4.21369 5.44039 4.67144 5.25 5.20616 5.25H18.8173C19.352 5.25 19.8098 5.44039 20.1905 5.82118C20.5713 6.20197 20.7617 6.65972 20.7617 7.19444V20.8056C20.7617 21.3403 20.5713 21.798 20.1905 22.1788C19.8098 22.5596 19.352 22.75 18.8173 22.75H5.20616ZM5.20616 20.8056H18.8173V7.19444H5.20616V20.8056ZM6.17839 18.8611H17.8451L14.1992 14L11.2826 17.8889L9.09505 14.9722L6.17839 18.8611Z" fill="#0DB9F2"/>
</svg>
