<svg width="24" height="24" viewBox="0 0 24 24" fill="none" xmlns="http://www.w3.org/2000/svg">
<path d="M3.98438 12.9844H9.98438C10.5469 12.9844 11.0156 12.5625 11.0156 12V3.98438C11.0156 3.46875 10.5469 3 9.98438 3H3.98438C3.46875 3 3 3.46875 3 3.98438V12C3 12.5625 3.46875 12.9844 3.98438 12.9844ZM3.98438 21H9.98438C10.5469 21 11.0156 20.5312 11.0156 20.0156V15.9844C11.0156 15.4688 10.5469 15 9.98438 15H3.98438C3.46875 15 3 15.4688 3 15.9844V20.0156C3 20.5312 3.46875 21 3.98438 21ZM14.0156 21H20.0156C20.5312 21 21 20.5312 21 20.0156V12C21 11.4375 20.5312 11.0156 20.0156 11.0156H14.0156C13.4531 11.0156 12.9844 11.4375 12.9844 12V20.0156C12.9844 20.5312 13.4531 21 14.0156 21ZM12.9844 3.98438V8.01562C12.9844 8.53125 13.4531 9 14.0156 9H20.0156C20.5312 9 21 8.53125 21 8.01562V3.98438C21 3.46875 20.5312 3 20.0156 3H14.0156C13.4531 3 12.9844 3.46875 12.9844 3.98438Z" fill="currentColor"/>
</svg>
