<svg width="24" height="24" viewBox="0 0 24 24" fill="none" xmlns="http://www.w3.org/2000/svg">
<path d="M18.9844 3H5.01562C3.89062 3 3 3.89062 3 5.01562V18.9844C3 20.1094 3.89062 21 5.01562 21H18.9844C20.1094 21 21 20.1094 21 18.9844V5.01562C21 3.89062 20.1094 3 18.9844 3ZM8.01562 17.0156C7.45312 17.0156 6.98438 16.5469 6.98438 15.9844V12.9844C6.98438 12.4688 7.45312 12 8.01562 12C8.53125 12 9 12.4688 9 12.9844V15.9844C9 16.5469 8.53125 17.0156 8.01562 17.0156ZM12 17.0156C11.4375 17.0156 11.0156 16.5469 11.0156 15.9844V15C11.0156 14.4375 11.4375 14.0156 12 14.0156C12.5625 14.0156 12.9844 14.4375 12.9844 15V15.9844C12.9844 16.5469 12.5625 17.0156 12 17.0156ZM12 12C11.4375 12 11.0156 11.5312 11.0156 11.0156C11.0156 10.4531 11.4375 9.98438 12 9.98438C12.5625 9.98438 12.9844 10.4531 12.9844 11.0156C12.9844 11.5312 12.5625 12 12 12ZM15.9844 17.0156C15.4688 17.0156 15 16.5469 15 15.9844V8.01562C15 7.45312 15.4688 6.98438 15.9844 6.98438C16.5469 6.98438 17.0156 7.45312 17.0156 8.01562V15.9844C17.0156 16.5469 16.5469 17.0156 15.9844 17.0156Z" fill="currentColor"/>
</svg>
