<svg width="24" height="24" viewBox="0 0 24 24" fill="none" xmlns="http://www.w3.org/2000/svg">
<path d="M20.0156 3.98438H3.98438C2.90625 3.98438 2.01562 4.92188 2.01562 6V18C2.01562 19.0781 2.90625 20.0156 3.98438 20.0156H20.0156C21.0938 20.0156 21.9844 19.0781 21.9844 18V6C21.9844 4.92188 21.0938 3.98438 20.0156 3.98438ZM19.5938 8.25L13.0781 12.3281C12.4219 12.75 11.5781 12.75 10.9219 12.3281L4.40625 8.25C4.17188 8.10938 3.98438 7.82812 3.98438 7.54688C3.98438 6.84375 4.73438 6.46875 5.29688 6.79688L12 11.0156L18.7031 6.79688C19.2656 6.46875 20.0156 6.84375 20.0156 7.54688C20.0156 7.82812 19.8281 8.10938 19.5938 8.25Z" fill="currentColor"/>
</svg>
