<svg width="24" height="24" viewBox="0 0 24 24" fill="none" xmlns="http://www.w3.org/2000/svg">
<path d="M18 3.98438L19.8281 7.64062C19.9219 7.78125 19.7812 8.01562 19.5938 8.01562H17.625C17.25 8.01562 16.875 7.78125 16.7344 7.45312L15 3.98438H12.9844L14.8125 7.64062C14.9062 7.78125 14.7656 8.01562 14.5781 8.01562H12.6094C12.2344 8.01562 11.9062 7.78125 11.7188 7.45312L9.98438 3.98438H8.01562L9.79688 7.64062C9.89062 7.78125 9.79688 8.01562 9.60938 8.01562H7.64062C7.21875 8.01562 6.89062 7.78125 6.70312 7.45312L5.01562 3.98438H3.98438C2.90625 3.98438 2.01562 4.92188 2.01562 6V18C2.01562 19.0781 2.90625 20.0156 3.98438 20.0156H20.0156C21.0938 20.0156 21.9844 19.0781 21.9844 18V5.01562C21.9844 4.45312 21.5625 3.98438 21 3.98438H18Z" fill="currentColor"/>
</svg>
